<?xml version="1.0" encoding="UTF-8"?>
<svg version="1.1" xmlns="http://www.w3.org/2000/svg" width="233" height="233">
<path d="M0 0 C76.89 0 153.78 0 233 0 C233 76.89 233 153.78 233 233 C156.11 233 79.22 233 0 233 C0 156.11 0 79.22 0 0 Z " fill="#020C0D" transform="translate(0,0)"/>
<path d="M0 0 C0 0.66 0 1.32 0 2 C0.66 2 1.32 2 2 2 C1.61330541 8.96050253 -0.63438409 13.9394075 -4 20 C-4.66 20 -5.32 20 -6 20 C-6.226875 20.825 -6.45375 21.65 -6.6875 22.5 C-9.34341229 29.58243277 -14.02128248 35.52810167 -18.44921875 41.60546875 C-20.00886928 44.01369488 -20.95147228 46.33867663 -22 49 C-22.91919633 50.46283531 -23.87889016 51.90091429 -24.875 53.3125 C-27.67108302 57.39697421 -29.88582368 61.52770394 -32 66 C-32.66 66 -33.32 66 -34 66 C-34.25265625 66.69609375 -34.5053125 67.3921875 -34.765625 68.109375 C-36.15938971 71.37325439 -37.87302343 74.23810737 -39.75 77.25 C-40.10271973 77.81847656 -40.45543945 78.38695313 -40.81884766 78.97265625 C-43.36591303 83.05533363 -46.0162023 87.05669156 -48.7734375 91 C-50.15284204 93.24922013 -51.08253641 95.53056529 -52 98 C-52.66 98 -53.32 98 -54 98 C-54.2475 98.86625 -54.495 99.7325 -54.75 100.625 C-56.16018653 104.43250364 -57.29534532 106.94201563 -60 110 C-63.13644785 110.8816211 -66.19547902 110.83686027 -69.4375 110.8125 C-71.23310131 110.84753215 -73.02867529 110.88399365 -74.82421875 110.921875 C-76.14172119 110.93637695 -76.14172119 110.93637695 -77.48583984 110.95117188 C-80.92528049 111.0179701 -84.32193231 111.27525287 -87.75 111.5625 C-88.77609375 111.64628906 -89.8021875 111.73007813 -90.859375 111.81640625 C-91.56578125 111.87699219 -92.2721875 111.93757813 -93 112 C-92.34877894 107.81106456 -91.42755093 103.9971426 -90 100 C-89.34 100 -88.68 100 -88 100 C-87.690625 99.05125 -87.38125 98.1025 -87.0625 97.125 C-86 94 -86 94 -85 92 C-84.34 92 -83.68 92 -83 92 C-82.8453125 90.824375 -82.8453125 90.824375 -82.6875 89.625 C-82 87 -82 87 -79 85 C-78.67 84.01 -78.34 83.02 -78 82 C-77.01 81.505 -77.01 81.505 -76 81 C-74.78344468 78.78674876 -73.65411172 76.58611167 -72.5625 74.3125 C-72.11293945 73.39307617 -72.11293945 73.39307617 -71.65429688 72.45507812 C-71.0578301 71.23497363 -70.46356128 70.01379199 -69.87158203 68.79150391 C-68.60274733 66.18346215 -67.30181917 63.59169505 -66 61 C-65.34 61 -64.68 61 -64 61 C-64 60.01 -64 59.02 -64 58 C-63.34 58 -62.68 58 -62 58 C-61.896875 57.278125 -61.79375 56.55625 -61.6875 55.8125 C-60.93206053 52.72206579 -59.84468685 50.58256159 -58 48 C-57.34 48 -56.68 48 -56 48 C-55.89429688 47.44570312 -55.78859375 46.89140625 -55.6796875 46.3203125 C-54.16100721 41.13585222 -50.77920131 36.60005734 -48 32 C-47.57299805 31.2884375 -47.14599609 30.576875 -46.70605469 29.84375 C-41.41400287 21.03246486 -36.11883096 12.27050778 -30 4 C-29.278125 2.989375 -28.55625 1.97875 -27.8125 0.9375 C-25.86657014 -1.14263192 -24.80089173 -1.69990446 -22 -2 C-22 -2.66 -22 -3.32 -22 -4 C-13.47967722 -5.91707263 -7.35456863 -4.20540493 0 0 Z " fill="#0ADCC4" transform="translate(128,30)"/>
<path d="M0 0 C1.35193703 -0.02136017 1.35193703 -0.02136017 2.73118591 -0.04315186 C3.71771149 -0.04336334 4.70423706 -0.04357483 5.72065735 -0.04379272 C7.28211739 -0.06131592 7.28211739 -0.06131592 8.87512207 -0.07919312 C12.32673783 -0.11286757 15.77792483 -0.12352645 19.22969055 -0.13119507 C21.62762608 -0.14337176 24.02556006 -0.15585763 26.42349243 -0.16864014 C31.4565014 -0.19114312 36.4893587 -0.20067286 41.52241516 -0.20297241 C47.96448032 -0.20824888 54.40527855 -0.25952971 60.84700298 -0.32248878 C65.80308973 -0.36340681 70.75887218 -0.37261503 75.71511269 -0.37308884 C78.08935202 -0.37846924 80.46359456 -0.39531732 82.83766747 -0.42393875 C86.16547388 -0.46070251 89.49041696 -0.45293522 92.8183136 -0.43441772 C93.79471802 -0.45487152 94.77112244 -0.47532532 95.77711487 -0.49639893 C102.20347231 -0.39840803 105.4822409 1.16471533 110.12411213 5.61326027 C112.80603148 8.8899461 112.88341507 12.22026401 112.80000305 16.34536743 C112.46660839 19.66673307 111.54010551 21.70700455 109.5929718 24.40786743 C103.88212569 27.53988889 99.06901224 27.8343049 92.63789368 27.78018188 C91.66300491 27.78383255 90.68811615 27.78748322 89.6836853 27.79124451 C86.47618434 27.79931937 83.26919343 27.78576507 80.0617218 27.77114868 C77.82405091 27.77062971 75.58637955 27.77114885 73.34870911 27.7726593 C68.66492381 27.77256971 63.98131112 27.76216776 59.29756165 27.74404907 C53.3021343 27.72136263 47.30695901 27.72081937 41.31150055 27.72756672 C36.69261954 27.7309126 32.07379569 27.7242649 27.45492554 27.71443748 C25.24459126 27.7105959 23.03425062 27.70943294 20.82391357 27.71102333 C17.73183638 27.71139533 14.64007895 27.69873584 11.54804993 27.68252563 C10.63978958 27.68500305 9.73152924 27.68748047 8.79574585 27.69003296 C3.04854751 27.64209222 -2.6168298 27.47731008 -7.40312195 23.92739868 C-9.9837722 20.87118145 -11.3027696 18.98128974 -12.0320282 14.97036743 C-10.82837262 8.10953064 -7.89940556 0.06380202 0 0 Z " fill="#0ADCC5" transform="translate(62.40702819824219,151.59213256835938)"/>
<path d="M0 0 C3.43774463 1.14591488 4.17413159 1.95688598 6 5 C6 6.32 6 7.64 6 9 C6.66 9 7.32 9 8 9 C11 14.75 11 14.75 11 17 C11.66 17 12.32 17 13 17 C13.45375 18.134375 13.9075 19.26875 14.375 20.4375 C15.57095806 24.04721692 15.57095806 24.04721692 18 25 C18.89511796 26.54924263 19.71893351 28.14024101 20.5 29.75 C20.9228125 30.61109375 21.345625 31.4721875 21.78125 32.359375 C23 35 23 35 23.88671875 37.4375 C25.30667978 40.70590152 27.23399268 43.3575562 29.3125 46.25 C32.91364288 51.34615849 36.0692387 56.49751653 39 62 C40.46614348 64.67398376 41.95019029 67.3377431 43.4375 70 C43.82542725 70.7005249 44.21335449 71.4010498 44.61303711 72.12280273 C46.7278392 75.89990244 48.95874418 79.40743894 51.5625 82.875 C54.66557212 87.35339494 54.9526937 91.69606103 54 97 C52.96875 99.29296875 52.96875 99.29296875 52 101 C47.66316886 100.42733239 44.11240089 99.34466724 40.125 97.5625 C34.53687161 95.15274947 29.17264406 93.72105547 23.25 92.375 C19.72853572 90.22299405 18.41391911 86.79151492 17 83 C17 82.34 17 81.68 17 81 C16.34 81 15.68 81 15 81 C12 75.25 12 75.25 12 73 C11.34 73 10.68 73 10 73 C8.99515796 71.04414675 7.99626195 69.08523763 7 67.125 C6.443125 66.03445312 5.88625 64.94390625 5.3125 63.8203125 C4 61 4 61 4 59 C3.34 59 2.68 59 2 59 C1.78085938 58.35804687 1.56171875 57.71609375 1.3359375 57.0546875 C-0.51241338 52.82834134 -2.93638502 49.03320137 -5.375 45.125 C-6.81230771 42.80762954 -8.24677171 40.48902047 -9.66699219 38.16113281 C-10.5146863 36.78681261 -11.38310478 35.42490382 -12.27832031 34.08105469 C-14.04222708 31.32220137 -14.99222649 29.38660241 -15.05859375 26.0859375 C-13.61284536 21.87139421 -11.46859561 18.35731661 -9.0625 14.625 C-8.60681641 13.88894531 -8.15113281 13.15289062 -7.68164062 12.39453125 C-5.15036656 8.39934319 -5.15036656 8.39934319 -4 7 C-3.34 7 -2.68 7 -2 7 C-1.855625 6.21625 -1.71125 5.4325 -1.5625 4.625 C-1 2 -1 2 0 0 Z " fill="#09DCC5" transform="translate(142,47)"/>
<path d="M0 0 C3.98729077 1.32909692 5.09342503 3.83037195 7.1875 7.25 C7.77144531 8.18477173 7.77144531 8.18477173 8.3671875 9.13842773 C9.1784801 10.43954809 9.98620902 11.74289666 10.79052734 13.04833984 C11.95375263 14.92537314 13.13876881 16.78648736 14.33203125 18.64453125 C15.05516522 19.78355101 15.77784138 20.9228616 16.5 22.0625 C17.47453125 23.59583984 17.47453125 23.59583984 18.46875 25.16015625 C19.92604905 27.86285118 20.60058713 29.97666644 21 33 C21.66 33 22.32 33 23 33 C24.76462683 36.08809695 25 37.23312136 25 41 C8.5 41 -8 41 -25 41 C-24.00061546 36.00307731 -22.28505587 32.97067039 -19.5 28.875 C-16.28680892 24.18361164 -16.28680892 24.18361164 -14 19 C-13.34 19 -12.68 19 -12 19 C-11.87625 18.195625 -11.87625 18.195625 -11.75 17.375 C-10.72418729 14.12659309 -9.03436106 11.71248141 -7 9 C-6.34 9 -5.68 9 -5 9 C-4.731875 8.071875 -4.46375 7.14375 -4.1875 6.1875 C-3.08851629 3.23759634 -2.37581439 1.94384814 0 0 Z " fill="#0AD9C2" transform="translate(116,95)"/>
<path d="M0 0 C0.784195 -0.00632635 1.56839001 -0.0126527 2.3763485 -0.01917076 C3.27626518 -0.03341087 4.17618187 -0.04765099 5.10336876 -0.06232262 C6.09348961 -0.0625341 7.08361046 -0.06274559 8.10373497 -0.06296349 C9.1445623 -0.07464561 10.18538963 -0.08632774 11.25775719 -0.09836388 C14.71480976 -0.13208455 18.17143452 -0.1427025 21.62863731 -0.15036583 C24.02800209 -0.1625403 26.42736531 -0.1750261 28.82672691 -0.1878109 C33.86571222 -0.21032699 38.90454591 -0.21984488 43.94357872 -0.22214317 C50.39351963 -0.22741688 56.84219351 -0.27867472 63.29179382 -0.34165955 C68.25217173 -0.38258086 73.21224563 -0.39178582 78.17277718 -0.3922596 C80.54980753 -0.39764064 82.92684105 -0.41449149 85.30370522 -0.44310951 C88.63640893 -0.47987514 91.96625361 -0.47210489 95.29904747 -0.45358849 C96.27702293 -0.47404228 97.2549984 -0.49449608 98.26260948 -0.51556969 C104.69374363 -0.41766053 107.97607251 1.14134772 112.62127304 5.59408951 C115.81781639 9.50101088 115.31726205 13.60726475 115.08957481 18.38869667 C114.42957481 19.04869667 113.76957481 19.70869667 113.08957481 20.38869667 C113.08957481 16.42869667 113.08957481 12.46869667 113.08957481 8.38869667 C111.76957481 8.05869667 110.44957481 7.72869667 109.08957481 7.38869667 C108.64242119 6.88358055 108.19526756 6.37846443 107.73456383 5.85804176 C105.23290957 3.62350197 103.07634389 3.95310514 99.7697506 3.87917519 C98.45247978 3.84396263 97.13520897 3.80875008 95.77802086 3.77247047 C94.32198617 3.74938645 92.86594108 3.72695082 91.40988731 3.70510292 C89.88864076 3.67229473 88.36741069 3.6387141 86.84619713 3.60441017 C69.40838778 3.24165207 51.96485445 3.27332302 34.5242672 3.32003212 C30.16453124 3.33053175 25.80478869 3.33488481 21.44504356 3.33986855 C12.9932037 3.35037917 4.54139409 3.36728725 -3.91042519 3.38869667 C-1.91042519 0.38869667 -1.91042519 0.38869667 0 0 Z " fill="#28B9AB" transform="translate(59.91042518615723,151.61130332946777)"/>
<path d="M0 0 C0.56855531 2.19299905 1.04645634 4.31745166 1.375 6.5625 C2.07974482 9.31100479 2.95423431 10.12471478 5 12 C5.33 12.99 5.66 13.98 6 15 C8.76562068 16.04961976 11.41574368 16.12550433 14.35092163 16.12698364 C15.2144072 16.12980347 16.07789276 16.13262329 16.96754456 16.13552856 C18.3765226 16.13249222 18.3765226 16.13249222 19.81396484 16.12939453 C21.30731102 16.13202301 21.30731102 16.13202301 22.83082581 16.13470459 C26.12421407 16.13910826 29.41754868 16.13618986 32.7109375 16.1328125 C35.00013235 16.13348607 37.28932713 16.13445654 39.57852173 16.13571167 C44.37852661 16.13718672 49.1785129 16.13504065 53.97851562 16.13037109 C60.12764661 16.12468037 66.27673389 16.12794988 72.42586327 16.13394356 C77.15449349 16.13755984 81.88311339 16.13640555 86.61174393 16.13381577 C88.87872956 16.13314912 91.14571612 16.13396576 93.41270065 16.13629532 C96.584241 16.1388386 99.75571097 16.13495725 102.92724609 16.12939453 C103.86251633 16.13141876 104.79778656 16.13344299 105.76139832 16.13552856 C110.28963603 16.12083697 114.54376772 15.92475067 119 15 C119 14.01 119 13.02 119 12 C119.66 12 120.32 12 121 12 C120.9375 13.8125 120.9375 13.8125 120 16 C114.29698976 19.1336032 109.46651758 19.42635732 103.04492188 19.37231445 C102.07003311 19.37596512 101.09514435 19.37961578 100.0907135 19.38337708 C96.88321253 19.39145193 93.67622163 19.37789764 90.46875 19.36328125 C88.23107911 19.36276228 85.99340775 19.36328142 83.7557373 19.36479187 C79.07195201 19.36470228 74.38833932 19.35430033 69.70458984 19.33618164 C63.7091625 19.3134952 57.7139872 19.31295194 51.71852875 19.31969929 C47.09964774 19.32304517 42.48082389 19.31639747 37.86195374 19.30657005 C35.65161946 19.30272847 33.44127881 19.30156551 31.23094177 19.3031559 C28.13886458 19.3035279 25.04710715 19.29086841 21.95507812 19.2746582 C21.04681778 19.27713562 20.13855743 19.27961304 19.20277405 19.28216553 C13.4555757 19.23422479 7.79019839 19.06944264 3.00390625 15.51953125 C0.25271017 12.26133969 -0.92889347 10.60948457 -1.4375 6.25 C-1 3 -1 3 0 0 Z " fill="#32ADA3" transform="translate(52,160)"/>
<path d="M0 0 C0.99088067 3.08273985 0.92482533 4.91724891 0 8 C0 8.66 0 9.32 0 10 C-0.99 10 -1.98 10 -3 10 C-3.144375 10.78375 -3.28875 11.5675 -3.4375 12.375 C-4 15 -4 15 -5 17 C-5.99 17 -6.98 17 -8 17 C-8.433125 18.0828125 -8.433125 18.0828125 -8.875 19.1875 C-9.91666667 21.79166667 -10.95833333 24.39583333 -12 27 C2.19 26.67 16.38 26.34 31 26 C31 25.01 31 24.02 31 23 C30.01 23.33 29.02 23.66 28 24 C27.505 19.545 27.505 19.545 27 15 C27.66 15.33 28.32 15.66 29 16 C29.625 18.5625 29.625 18.5625 30 21 C30.66 21 31.32 21 32 21 C33.76462683 24.08809695 34 25.23312136 34 29 C17.5 29 1 29 -16 29 C-15.00061546 24.00307731 -13.28505587 20.97067039 -10.5 16.875 C-7.28680892 12.18361164 -7.28680892 12.18361164 -5 7 C-4.34 7 -3.68 7 -3 7 C-2.87625 6.401875 -2.7525 5.80375 -2.625 5.1875 C-2 3 -2 3 0 0 Z " fill="#3EC5B8" transform="translate(107,107)"/>
<path d="M0 0 C0.99 0.33 1.98 0.66 3 1 C3 1.66 3 2.32 3 3 C3.66 3 4.32 3 5 3 C4.61330541 9.96050253 2.36561591 14.9394075 -1 21 C-1.66 21 -2.32 21 -3 21 C-3.226875 21.825 -3.45375 22.65 -3.6875 23.5 C-6.34341229 30.58243277 -11.02128248 36.52810167 -15.44921875 42.60546875 C-17.00782307 45.01207944 -17.95540437 47.33947889 -19 50 C-20.55297543 52.43299484 -22.27305892 54.68226329 -24 57 C-25.04449911 53.86650268 -24.93423645 53.01031744 -24 50 C-23.34 50 -22.68 50 -22 50 C-20.92474806 47.34771188 -19.90543849 44.71631546 -19 42 C-18.34 42 -17.68 42 -17 42 C-16.67 41.01 -16.34 40.02 -16 39 C-15.505 38.13375 -15.01 37.2675 -14.5 36.375 C-12.66041476 32.23593322 -12.288716 28.48007583 -12 24 C-11.67 24.99 -11.34 25.98 -11 27 C-10.01 27 -9.02 27 -8 27 C-7.67 25.02 -7.34 23.04 -7 21 C-6.01 21 -5.02 21 -4 21 C-4 19.68 -4 18.36 -4 17 C-3.34 17 -2.68 17 -2 17 C-0.57383843 13.67228967 0.37649014 10.56291346 1 7 C1.33333333 5.33333333 1.66666667 3.66666667 2 2 C1.34 2 0.68 2 0 2 C0 1.34 0 0.68 0 0 Z " fill="#29CCC0" transform="translate(125,29)"/>
<path d="M0 0 C2.475 0.495 2.475 0.495 5 1 C5.495 2.98 5.495 2.98 6 5 C6.66 5 7.32 5 8 5 C8 5.99 8 6.98 8 8 C8.66 8.33 9.32 8.66 10 9 C-4.85 9 -19.7 9 -35 9 C-35 8.01 -35 7.02 -35 6 C-24.11 6 -13.22 6 -2 6 C-1.34 4.02 -0.68 2.04 0 0 Z " fill="#13DECD" transform="translate(130,125)"/>
<path d="M0 0 C1.08784335 3.31395986 1.07262544 3.83580335 -0.4375 7.25 C-0.953125 8.1575 -1.46875 9.065 -2 10 C-2.66 10 -3.32 10 -4 10 C-4 11.98 -4 13.96 -4 16 C-4.99 16.33 -5.98 16.66 -7 17 C-7.33 17.99 -7.66 18.98 -8 20 C-7.34 20 -6.68 20 -6 20 C-5.55269531 20.9178125 -5.10539063 21.835625 -4.64453125 22.78125 C-1.39140194 29.40588639 1.91474902 35.84181752 6 42 C17 58.66213152 17 58.66213152 17 64 C16.34 64 15.68 64 15 64 C13.99515796 62.04414675 12.99626195 60.08523763 12 58.125 C11.443125 57.03445312 10.88625 55.94390625 10.3125 54.8203125 C9 52 9 52 9 50 C8.34 50 7.68 50 7 50 C6.78085938 49.35804687 6.56171875 48.71609375 6.3359375 48.0546875 C4.48758662 43.82834134 2.06361498 40.03320137 -0.375 36.125 C-1.81230771 33.80762954 -3.24677171 31.48902047 -4.66699219 29.16113281 C-5.5146863 27.78681261 -6.38310478 26.42490382 -7.27832031 25.08105469 C-9.0667308 22.28387612 -9.99561142 20.37156638 -10.03515625 17.0234375 C-8.70138195 13.12780991 -6.7465066 10.01248594 -4.4375 6.625 C-4.01275391 5.98433594 -3.58800781 5.34367187 -3.15039062 4.68359375 C-2.10941258 3.1162785 -1.05595366 1.55726499 0 0 Z " fill="#29B2A0" transform="translate(137,56)"/>
<path d="M0 0 C0.99 0.495 0.99 0.495 2 1 C-0.93770003 2.67515022 -3.05735352 3.25403879 -6.42926025 3.2784729 C-7.75011627 3.29521812 -7.75011627 3.29521812 -9.09765625 3.31230164 C-10.05575195 3.31446182 -11.01384766 3.31662201 -12.00097656 3.31884766 C-13.01593201 3.32889328 -14.03088745 3.3389389 -15.07659912 3.34928894 C-18.43126866 3.38017888 -21.78585817 3.3971724 -25.140625 3.4140625 C-27.4666208 3.43276945 -29.79260979 3.45234251 -32.11859131 3.4727478 C-38.24072249 3.52412484 -44.36287569 3.56372085 -50.48510742 3.60089111 C-56.73231477 3.64089576 -62.97943009 3.69200426 -69.2265625 3.7421875 C-81.48431041 3.83901281 -93.74211021 3.92339654 -106 4 C-106 3.34 -106 2.68 -106 2 C-106.66 1.67 -107.32 1.34 -108 1 C-106.69121384 1.00222061 -105.38242767 1.00444122 -104.03398132 1.00672913 C-91.71750289 1.02697512 -79.40102783 1.0419792 -67.08453655 1.05181217 C-60.75207006 1.05703728 -54.41961698 1.06412822 -48.0871582 1.07543945 C-41.97935161 1.0862815 -35.87155792 1.09227965 -29.76374245 1.09487724 C-27.43008025 1.0967291 -25.09641879 1.10034517 -22.76276207 1.10573006 C-19.50157502 1.11295791 -16.24044178 1.11399019 -12.97924805 1.11352539 C-12.00820633 1.11712067 -11.03716461 1.12071594 -10.03669739 1.12442017 C-9.14908722 1.1230455 -8.26147705 1.12167084 -7.3469696 1.12025452 C-6.18965851 1.12163721 -6.18965851 1.12163721 -5.0089674 1.12304783 C-2.79218045 1.07385947 -2.79218045 1.07385947 0 0 Z " fill="#042A27" transform="translate(168,177)"/>
<path d="M0 0 C0.66 0.33 1.32 0.66 2 1 C1.36288852 4.08168051 0.31694985 6.46517258 -1.25 9.1875 C-1.69214844 9.96351562 -2.13429688 10.73953125 -2.58984375 11.5390625 C-3.28787109 12.75722656 -3.28787109 12.75722656 -4 14 C-4.93987796 15.68617672 -5.87748895 17.37361965 -6.8125 19.0625 C-7.54166667 20.375 -8.27083333 21.6875 -9 23 C-8.34 22.67 -7.68 22.34 -7 22 C-4.82175039 21.91440882 -2.64084745 21.89286588 -0.4609375 21.90234375 C0.84101562 21.90556641 2.14296875 21.90878906 3.484375 21.91210938 C4.86458399 21.92046534 6.24479232 21.92893029 7.625 21.9375 C9.01301926 21.94251499 10.40104022 21.9470779 11.7890625 21.95117188 C15.19275132 21.96299024 18.59635439 21.97946566 22 22 C22 22.33 22 22.66 22 23 C20.06060547 23.09087891 20.06060547 23.09087891 18.08203125 23.18359375 C8.3734982 23.64808556 -1.31477983 24.16933331 -11 25 C-10.34877894 20.81106456 -9.42755093 16.9971426 -8 13 C-7.34 13 -6.68 13 -6 13 C-5.690625 12.05125 -5.38125 11.1025 -5.0625 10.125 C-4 7 -4 7 -3 5 C-2.34 5 -1.68 5 -1 5 C-0.67 3.35 -0.34 1.7 0 0 Z " fill="#27A99C" transform="translate(46,117)"/>
<path d="M0 0 C1.32 0 2.64 0 4 0 C4 1.98 4 3.96 4 6 C5.175625 6.0928125 5.175625 6.0928125 6.375 6.1875 C7.24125 6.455625 8.1075 6.72375 9 7 C10.1875 9.5 10.1875 9.5 11 12 C11.66 12.33 12.32 12.66 13 13 C13 12.34 13 11.68 13 11 C14.32 11.66 15.64 12.32 17 13 C16.01 13.33 15.02 13.66 14 14 C14 14.99 14 15.98 14 17 C16.64 17.33 19.28 17.66 22 18 C22 18.66 22 19.32 22 20 C16.89922776 20.37322724 13.41830878 19.61825705 9 17 C6.89174739 13.97672867 5 10.74887258 5 7 C4.34 7 3.68 7 3 7 C2.01 4.69 1.02 2.38 0 0 Z " fill="#22C9BA" transform="translate(154,121)"/>
<path d="M0 0 C1.60474989 4.80333302 0.03862431 8.53483501 -2 13 C-4.125 15.3125 -4.125 15.3125 -6 17 C-6.165 17.70125 -6.33 18.4025 -6.5 19.125 C-6.665 19.74375 -6.83 20.3625 -7 21 C-9 22.125 -9 22.125 -11 23 C-11.33 23.66 -11.66 24.32 -12 25 C-12.66 25 -13.32 25 -14 25 C-14.33 26.32 -14.66 27.64 -15 29 C-15.33 28.34 -15.66 27.68 -16 27 C-15.505 25.515 -15.505 25.515 -15 24 C-14.34 24 -13.68 24 -13 24 C-13 23.01 -13 22.02 -13 21 C-12.34 21 -11.68 21 -11 21 C-10.8453125 19.9171875 -10.8453125 19.9171875 -10.6875 18.8125 C-9.93206053 15.72206579 -8.84468685 13.58256159 -7 11 C-6.34 11 -5.68 11 -5 11 C-4.9175 10.484375 -4.835 9.96875 -4.75 9.4375 C-3.67859775 5.95544268 -1.86476395 3.12799115 0 0 Z " fill="#21B5A1" transform="translate(77,67)"/>
<path d="M0 0 C0 2.62113708 -0.31292445 4.50935112 -1 7 C-1.66 7 -2.32 7 -3 7 C-3.12375 7.969375 -3.2475 8.93875 -3.375 9.9375 C-3.58125 10.948125 -3.7875 11.95875 -4 13 C-4.99 13.495 -4.99 13.495 -6 14 C-6.65213292 16.02463255 -6.65213292 16.02463255 -7 18 C-7.66 18 -8.32 18 -9 18 C-9.0825 18.7425 -9.165 19.485 -9.25 20.25 C-10.14809799 23.54302595 -11.38416074 24.85976788 -14 27 C-14.66 27 -15.32 27 -16 27 C-14.40020502 22.53426214 -12.13810406 18.65938288 -9.6875 14.625 C-9.30916016 13.99078125 -8.93082031 13.3565625 -8.54101562 12.703125 C-5.89197527 8.31046924 -3.02436708 4.14311525 0 0 Z " fill="#29B3A2" transform="translate(98,34)"/>
<path d="M0 0 C0.99088067 3.08273985 0.92482533 4.91724891 0 8 C0 8.66 0 9.32 0 10 C-0.99 10 -1.98 10 -3 10 C-3.144375 10.78375 -3.28875 11.5675 -3.4375 12.375 C-4 15 -4 15 -5 17 C-5.99 17 -6.98 17 -8 17 C-8.4021875 18.2065625 -8.4021875 18.2065625 -8.8125 19.4375 C-9.204375 20.283125 -9.59625 21.12875 -10 22 C-10.99 22.33 -11.98 22.66 -13 23 C-11.57250019 19.20950293 -9.83763458 15.72877544 -7.875 12.1875 C-7.33617188 11.21167969 -6.79734375 10.23585938 -6.2421875 9.23046875 C-5.62730469 8.12638672 -5.62730469 8.12638672 -5 7 C-4.34 7 -3.68 7 -3 7 C-2.87625 6.401875 -2.7525 5.80375 -2.625 5.1875 C-2 3 -2 3 0 0 Z " fill="#20B6A6" transform="translate(107,107)"/>
<path d="M0 0 C3.43774463 1.14591488 4.17413159 1.95688598 6 5 C6 6.32 6 7.64 6 9 C6.66 9 7.32 9 8 9 C11 14.75 11 14.75 11 17 C11.66 17 12.32 17 13 17 C12.67 18.32 12.34 19.64 12 21 C11.16121545 19.71186658 10.32913217 18.41936744 9.5 17.125 C9.0359375 16.40570313 8.571875 15.68640625 8.09375 14.9453125 C7 13 7 13 7 11 C6.34 11 5.68 11 5 11 C4.67 9.02 4.34 7.04 4 5 C2.05925139 5.27617533 2.05925139 5.27617533 0 6 C-0.99 7.485 -0.99 7.485 -2 9 C-2.66 9 -3.32 9 -4 9 C-4 8.34 -4 7.68 -4 7 C-3.34 7 -2.68 7 -2 7 C-1.855625 6.21625 -1.71125 5.4325 -1.5625 4.625 C-1 2 -1 2 0 0 Z " fill="#2DB9A7" transform="translate(142,47)"/>
<path d="M0 0 C1.65 0 3.3 0 5 0 C5.19573608 1.43640171 5.38127816 2.87419504 5.5625 4.3125 C5.66691406 5.11300781 5.77132812 5.91351563 5.87890625 6.73828125 C6 9 6 9 5 12 C4.34 12 3.68 12 3 12 C2.67 12.99 2.34 13.98 2 15 C1.2717552 10.00632136 0.61512818 5.00890086 0 0 Z " fill="#12D9C8" transform="translate(168,160)"/>
<path d="M0 0 C1 3 1 3 1 5 C16.51 5 32.02 5 48 5 C48 5.33 48 5.66 48 6 C31.5 6 15 6 -2 6 C-1 1 -1 1 0 0 Z " fill="#1C7268" transform="translate(93,130)"/>
<path d="M0 0 C0.9178125 0.00451172 1.835625 0.00902344 2.78125 0.01367188 C5.02090391 0.02533674 7.26041545 0.04170386 9.5 0.0625 C6.77587891 3.02148438 6.77587891 3.02148438 4.29296875 3.390625 C3.43316406 3.36484375 2.57335937 3.3390625 1.6875 3.3125 C0.72585937 3.28671875 -0.23578125 3.2609375 -1.2265625 3.234375 C-6.99161982 2.93167509 -12.74629408 2.53287596 -18.5 2.0625 C-18.5 1.7325 -18.5 1.4025 -18.5 1.0625 C-12.28829926 0.14090421 -6.27390894 -0.05927385 0 0 Z " fill="#0A3732" transform="translate(58.5,139.9375)"/>
<path d="M0 0 C2.8053834 1.4026917 3.35891709 3.23857599 4.8125 6 C5.34101563 6.99386719 5.86953125 7.98773438 6.4140625 9.01171875 C6.93742188 9.99785156 7.46078125 10.98398438 8 12 C8.89166327 13.6064883 9.78710542 15.21088904 10.6875 16.8125 C16 26.375 16 26.375 16 29 C15.34 29 14.68 29 14 29 C12.99515796 27.04414675 11.99626195 25.08523763 11 23.125 C10.443125 22.03445312 9.88625 20.94390625 9.3125 19.8203125 C8 17 8 17 8 15 C7.34 15 6.68 15 6 15 C5.62875 13.9790625 5.62875 13.9790625 5.25 12.9375 C4.24599809 10.57809552 3.18372902 8.56085591 1.875 6.375 C0 3 0 3 0 0 Z " fill="#31BEAC" transform="translate(138,91)"/>
<path d="M0 0 C0 3.63 0 7.26 0 11 C-0.99 11 -1.98 11 -3 11 C-3.33 10.01 -3.66 9.02 -4 8 C-4.99 7.67 -5.98 7.34 -7 7 C-6.75 4.625 -6.75 4.625 -6 2 C-3.84898936 0.54286376 -2.59713506 0 0 0 Z " fill="#10DFD5" transform="translate(193,136)"/>
<path d="M0 0 C0.66 0 1.32 0 2 0 C2 0.66 2 1.32 2 2 C2.66 1.67 3.32 1.34 4 1 C6.17824961 0.91440882 8.35915255 0.89286588 10.5390625 0.90234375 C11.84101562 0.90556641 13.14296875 0.90878906 14.484375 0.91210938 C15.86458399 0.92046534 17.24479232 0.92893029 18.625 0.9375 C20.01301926 0.94251499 21.40104022 0.9470779 22.7890625 0.95117188 C26.19275132 0.96299024 29.59635439 0.97946566 33 1 C33 1.33 33 1.66 33 2 C31.06060547 2.09087891 31.06060547 2.09087891 29.08203125 2.18359375 C19.3734982 2.64808556 9.68522017 3.16933331 0 4 C0 2.68 0 1.36 0 0 Z " fill="#36BBAE" transform="translate(35,138)"/>
<path d="M0 0 C0.639375 0.804375 1.27875 1.60875 1.9375 2.4375 C3.40603502 4.2750504 3.40603502 4.2750504 5 6 C5.12535652 7.60048202 5.17574787 9.20715928 5.1875 10.8125 C5.20167969 11.68519531 5.21585938 12.55789062 5.23046875 13.45703125 C4.99010406 16.10919085 4.34187309 17.72464999 3 20 C1.68 19.67 0.36 19.34 -1 19 C-0.01 19 0.98 19 2 19 C1.85761163 16.95809019 1.71092972 14.91647955 1.5625 12.875 C1.48128906 11.73804688 1.40007812 10.60109375 1.31640625 9.4296875 C1.02269035 6.2459522 0.56875687 3.14489093 0 0 Z " fill="#2BCDC0" transform="translate(191,128)"/>
<path d="M0 0 C0.33 1.32 0.66 2.64 1 4 C0.34 4 -0.32 4 -1 4 C-1 5.32 -1 6.64 -1 8 C-1.66 8 -2.32 8 -3 8 C-2.67 9.98 -2.34 11.96 -2 14 C-3.175625 14.0928125 -3.175625 14.0928125 -4.375 14.1875 C-5.24125 14.455625 -6.1075 14.72375 -7 15 C-8.37466625 17.47636012 -8.37466625 17.47636012 -9 20 C-9.66 20 -10.32 20 -11 20 C-9.71632739 14.99367682 -7.36129146 11.31741331 -4.46484375 7.125 C-2.86861696 4.809407 -1.4120318 2.43183255 0 0 Z " fill="#093731" transform="translate(94,96)"/>
<path d="M0 0 C5.74944687 5.49616727 11.1365079 12.13192226 13 20 C12.01 20 11.02 20 10 20 C10 18.35 10 16.7 10 15 C9.40703125 14.95746094 8.8140625 14.91492188 8.203125 14.87109375 C4.84404905 13.54294847 4.25602778 11.26090748 2.75 8.0625 C2.22921875 6.98097656 1.7084375 5.89945312 1.171875 4.78515625 C0 2 0 2 0 0 Z " fill="#2ACDB8" transform="translate(165,86)"/>
<path d="M0 0 C1.32 0 2.64 0 4 0 C4 1.98 4 3.96 4 6 C3.34 6 2.68 6 2 6 C1.731875 6.61875 1.46375 7.2375 1.1875 7.875 C0 10 0 10 -3 12 C-3.34833144 7.12335991 -2.41685712 4.22949995 0 0 Z " fill="#0CDDD3" transform="translate(86,96)"/>
<path d="M0 0 C0.99 0.33 1.98 0.66 3 1 C3 1.66 3 2.32 3 3 C3.66 3 4.32 3 5 3 C4.61330541 9.96050253 2.36561591 14.9394075 -1 21 C-1.33 21 -1.66 21 -2 21 C-2.3767061 15.47497725 -2.3767061 15.47497725 -0.5625 13.1875 C1.85824086 9.7984628 1.74750049 6.07481971 2 2 C1.34 2 0.68 2 0 2 C0 1.34 0 0.68 0 0 Z " fill="#34BFB8" transform="translate(125,29)"/>
<path d="M0 0 C0.598125 0.474375 1.19625 0.94875 1.8125 1.4375 C4.00382924 3.16465744 4.00382924 3.16465744 7 4 C7 4.66 7 5.32 7 6 C6.34 6 5.68 6 5 6 C5.33 8.64 5.66 11.28 6 14 C2.29277914 10.80411995 0.59354521 7.61289402 -1 3 C-0.67 2.01 -0.34 1.02 0 0 Z " fill="#061D1C" transform="translate(185,112)"/>
<path d="M0 0 C3.32859708 3.04875927 5.50435293 6.21910958 7.75 10.125 C8.67039063 11.70667969 8.67039063 11.70667969 9.609375 13.3203125 C11 16 11 16 11 18 C10.01 17.67 9.02 17.34 8 17 C7.67 15.35 7.34 13.7 7 12 C6.01 11.67 5.02 11.34 4 11 C4 10.01 4 9.02 4 8 C3.34 8 2.68 8 2 8 C0.23537317 4.91190305 0 3.76687864 0 0 Z " fill="#2CB29F" transform="translate(123,104)"/>
<path d="M0 0 C0.33 0.99 0.66 1.98 1 3 C1.66 3.33 2.32 3.66 3 4 C1.7260411 6.03833424 0.38938077 8.03852126 -1 10 C-1.66 10 -2.32 10 -3 10 C-3.12375 10.639375 -3.2475 11.27875 -3.375 11.9375 C-3.58125 12.618125 -3.7875 13.29875 -4 14 C-4.99 14.495 -4.99 14.495 -6 15 C-5.10164835 7.21428571 -5.10164835 7.21428571 -3 4 C-2.34 3.67 -1.68 3.34 -1 3 C-0.67 2.01 -0.34 1.02 0 0 Z " fill="#19D1B7" transform="translate(53,108)"/>
<path d="M0 0 C0.56855531 2.19299905 1.04645634 4.31745166 1.375 6.5625 C2.07974482 9.31100479 2.95423431 10.12471478 5 12 C5.33 12.99 5.66 13.98 6 15 C8.01508358 15.73323796 8.01508358 15.73323796 10 16 C10 16.66 10 17.32 10 18 C7.23607171 17.91870799 5.4720282 17.39022472 3.33203125 15.62109375 C0.33186894 12.43564826 -0.91873198 10.69658304 -1.4375 6.25 C-1 3 -1 3 0 0 Z " fill="#33C0B1" transform="translate(52,160)"/>
<path d="M0 0 C2.97 0.495 2.97 0.495 6 1 C6.309375 2.093125 6.61875 3.18625 6.9375 4.3125 C7.58337897 6.55407994 8.2623117 8.7869351 9 11 C8.01 12.485 8.01 12.485 7 14 C6.34 11.69 5.68 9.38 5 7 C4.34 7 3.68 7 3 7 C2.01 4.69 1.02 2.38 0 0 Z " fill="#062324" transform="translate(134,121)"/>
<path d="M0 0 C0.66 0.66 1.32 1.32 2 2 C-4.93 1.505 -4.93 1.505 -12 1 C-12 1.99 -12 2.98 -12 4 C-14.31 4.33 -16.62 4.66 -19 5 C-17.625 3.5 -17.625 3.5 -16 2 C-15.34 2 -14.68 2 -14 2 C-14 1.34 -14 0.68 -14 0 C-8.96373842 -1.13315886 -5.02512348 -0.92127264 0 0 Z " fill="#32B1AA" transform="translate(120,26)"/>
<path d="M0 0 C0.33 0.66 0.66 1.32 1 2 C0.22265625 3.9453125 0.22265625 3.9453125 -0.9375 6.125 C-1.31777344 6.84945312 -1.69804688 7.57390625 -2.08984375 8.3203125 C-2.54037109 9.15175781 -2.54037109 9.15175781 -3 10 C-3.66 10 -4.32 10 -5 10 C-5.33 10.99 -5.66 11.98 -6 13 C-7.28840775 9.13477676 -6.4223305 7.47619269 -4.96875 3.80859375 C-4 2 -4 2 -1.8125 0.5 C-1.214375 0.335 -0.61625 0.17 0 0 Z " fill="#2EC0B1" transform="translate(99,86)"/>
<path d="M0 0 C5.39890011 3.39359436 7.65155222 8.26379138 10 14 C10 14.66 10 15.32 10 16 C9.34 16 8.68 16 8 16 C5.38921787 12.49176151 3.47389119 9.10583974 2 5 C1.62875 4.071875 1.2575 3.14375 0.875 2.1875 C0.58625 1.465625 0.2975 0.74375 0 0 Z " fill="#2EB6A6" transform="translate(155,68)"/>
<path d="M0 0 C1.485 0.99 1.485 0.99 3 2 C3.6875 5.625 3.6875 5.625 4 9 C3.34 9 2.68 9 2 9 C1.67 9.99 1.34 10.98 1 12 C0.36605303 7.95858806 -0.12404452 4.0934693 0 0 Z " fill="#13DDD7" transform="translate(169,163)"/>
<path d="M0 0 C4.86896303 0.59619955 9.32790951 1.56976822 14 3 C14 3.99 14 4.98 14 6 C9.27934033 4.45730076 4.58335908 2.92205381 0 1 C0 0.67 0 0.34 0 0 Z " fill="#2EBAAE" transform="translate(176,141)"/>
<path d="M0 0 C3.33511388 2.9901021 5.21521119 5.89498574 7 10 C7 10.66 7 11.32 7 12 C6.01 12 5.02 12 4 12 C2.18757677 7.9811485 0.66498383 4.38889325 0 0 Z " fill="#2CAA9C" transform="translate(178,106)"/>
<path d="M0 0 C0.33 0.99 0.66 1.98 1 3 C-0.21484375 5.04296875 -0.21484375 5.04296875 -1.9375 7.1875 C-2.50339844 7.90292969 -3.06929688 8.61835937 -3.65234375 9.35546875 C-4.09707031 9.89816406 -4.54179688 10.44085938 -5 11 C-5.61328125 9.19921875 -5.61328125 9.19921875 -6 7 C-2.82191781 1.4109589 -2.82191781 1.4109589 0 0 Z " fill="#1FD3BC" transform="translate(103,30)"/>
<path d="M0 0 C1.32 0 2.64 0 4 0 C4 1.98 4 3.96 4 6 C4.99 6.33 5.98 6.66 7 7 C7.33 8.98 7.66 10.96 8 13 C5 9.25 5 9.25 5 7 C4.34 7 3.68 7 3 7 C2.01 4.69 1.02 2.38 0 0 Z " fill="#2DC0AB" transform="translate(154,121)"/>
<path d="M0 0 C0.99 0.33 1.98 0.66 3 1 C3 1.66 3 2.32 3 3 C3.99 3.33 4.98 3.66 6 4 C6.33 6.31 6.66 8.62 7 11 C4.04250209 7.53258866 1.92151848 4.13126473 0 0 Z M8 1 C8.33 1.66 8.66 2.32 9 3 C8.34 2.67 7.68 2.34 7 2 C7.33 1.67 7.66 1.34 8 1 Z " fill="#021B18" transform="translate(127,109)"/>
<path d="M0 0 C0.99 0 1.98 0 3 0 C1.34832443 3.5786304 -0.78286492 6.74820188 -3 10 C-4.04449911 6.86650268 -3.93423645 6.01031744 -3 3 C-2.34 3 -1.68 3 -1 3 C-0.67 2.01 -0.34 1.02 0 0 Z " fill="#2EBDB0" transform="translate(104,76)"/>
<path d="M0 0 C0.99 0.33 1.98 0.66 3 1 C2.45912682 4.78611227 0.88277668 6.55400767 -2 9 C-2.66 9 -3.32 9 -4 9 C-4 8.34 -4 7.68 -4 7 C-3.34 7 -2.68 7 -2 7 C-1.855625 6.21625 -1.71125 5.4325 -1.5625 4.625 C-1 2 -1 2 0 0 Z " fill="#36B2B0" transform="translate(142,47)"/>
<path d="M0 0 C4.60853797 0.72008406 8.67237409 2.31295939 13 4 C12.01 4.66 11.02 5.32 10 6 C6.8125 5.125 6.8125 5.125 4 4 C4 3.34 4 2.68 4 2 C2.68 2 1.36 2 0 2 C0 1.34 0 0.68 0 0 Z " fill="#02211C" transform="translate(181,144)"/>
<path d="M0 0 C0.66 0.33 1.32 0.66 2 1 C2.05437607 2.58294782 2.09296271 4.16644256 2.125 5.75 C2.14820313 6.63171875 2.17140625 7.5134375 2.1953125 8.421875 C1.99139502 11.1135858 1.36551721 12.69904974 0 15 C-1.32 14.67 -2.64 14.34 -4 14 C-3.01 14 -2.02 14 -1 14 C-1 12.35 -1 10.7 -1 9 C-0.34 9 0.32 9 1 9 C0.67 6.03 0.34 3.06 0 0 Z " fill="#2C9B97" transform="translate(194,133)"/>
<path d="M0 0 C2.25 0.25 2.25 0.25 4 1 C4.33 2.65 4.66 4.3 5 6 C0.545 5.01 0.545 5.01 -4 4 C-2.25 1.9375 -2.25 1.9375 0 0 Z " fill="#19DCCF" transform="translate(180,137)"/>
<path d="M0 0 C0.93423645 3.01031744 1.04449911 3.86650268 0 7 C0.66 7 1.32 7 2 7 C2.33 8.32 2.66 9.64 3 11 C2.01 11 1.02 11 0 11 C-1.77084117 8.29165469 -2.01052504 7.10735541 -1.6875 3.8125 C-1 1 -1 1 0 0 Z " fill="#2FAE9C" transform="translate(129,69)"/>
<path d="M0 0 C1.98 0.99 1.98 0.99 4 2 C3.67 4.97 3.34 7.94 3 11 C2.34 10.67 1.68 10.34 1 10 C0.5859375 7.71484375 0.5859375 7.71484375 0.375 4.9375 C0.30023438 4.01839844 0.22546875 3.09929687 0.1484375 2.15234375 C0.09945312 1.44207031 0.05046875 0.73179687 0 0 Z " fill="#0B3B3A" transform="translate(48,159)"/>
<path d="M0 0 C0.66 0 1.32 0 2 0 C0.77782954 4.04256383 -0.62754296 7.49288959 -3 11 C-3.33 11 -3.66 11 -4 11 C-4 9.35 -4 7.7 -4 6 C-3.34 6 -2.68 6 -2 6 C-1.7834375 5.071875 -1.7834375 5.071875 -1.5625 4.125 C-1 2 -1 2 0 0 Z " fill="#2EB6A6" transform="translate(72,128)"/>
<path d="M0 0 C0.6875 1.6875 0.6875 1.6875 1 4 C-0.25 6.6875 -0.25 6.6875 -2 9 C-2.99 9.33 -3.98 9.66 -5 10 C-3.84414715 6.08788267 -2.64465038 3.1254959 0 0 Z " fill="#2DB3A2" transform="translate(60,96)"/>
<path d="M0 0 C0.66 0 1.32 0 2 0 C2 0.66 2 1.32 2 2 C2.66 2.33 3.32 2.66 4 3 C3.34 3 2.68 3 2 3 C1.34 5.31 0.68 7.62 0 10 C-0.66 10 -1.32 10 -2 10 C-2.33 10.66 -2.66 11.32 -3 12 C-3 10.68 -3 9.36 -3 8 C-2.34 8 -1.68 8 -1 8 C-0.67 5.36 -0.34 2.72 0 0 Z " fill="#07242C" transform="translate(140,44)"/>
<path d="M0 0 C0.99 0.33 1.98 0.66 3 1 C3 1.66 3 2.32 3 3 C3.66 3 4.32 3 5 3 C5 4.65 5 6.3 5 8 C3.68 8 2.36 8 1 8 C1.33 6.02 1.66 4.04 2 2 C1.34 2 0.68 2 0 2 C0 1.34 0 0.68 0 0 Z " fill="#27B9AF" transform="translate(125,29)"/>
<path d="M0 0 C1.18771723 3.42943519 0.80226223 5.37784675 -0.4375 8.75 C-0.86869141 9.94882813 -0.86869141 9.94882813 -1.30859375 11.171875 C-1.65083984 12.07679688 -1.65083984 12.07679688 -2 13 C-2.33 13 -2.66 13 -3 13 C-3 10.36 -3 7.72 -3 5 C-2.34 5 -1.68 5 -1 5 C-0.67 3.35 -0.34 1.7 0 0 Z " fill="#062424" transform="translate(37,129)"/>
<path d="M0 0 C0.33 0.66 0.66 1.32 1 2 C0.22265625 3.9453125 0.22265625 3.9453125 -0.9375 6.125 C-1.31777344 6.84945312 -1.69804688 7.57390625 -2.08984375 8.3203125 C-2.39019531 8.87460938 -2.69054687 9.42890625 -3 10 C-3.66 10 -4.32 10 -5 10 C-4.49701212 5.59885603 -2.91227269 3.28804981 0 0 Z " fill="#30C2B7" transform="translate(79,118)"/>
<path d="M0 0 C0.66 0 1.32 0 2 0 C0.82744291 3.33727786 -0.18868404 5.77437487 -3 8 C-3.66 8 -4.32 8 -5 8 C-4.34 6.35 -3.68 4.7 -3 3 C-2.01 3 -1.02 3 0 3 C0 2.01 0 1.02 0 0 Z " fill="#22C1AB" transform="translate(87,53)"/>
<path d="M0 0 C0.99 0.33 1.98 0.66 3 1 C3.80967438 3.91482778 4.21845993 5.46113217 3.0625 8.3125 C2.5365625 9.1478125 2.5365625 9.1478125 2 10 C2 9.34 2 8.68 2 8 C1.34 8 0.68 8 0 8 C0 5.36 0 2.72 0 0 Z " fill="#0B1B21" transform="translate(148,48)"/>
<path d="M0 0 C0.66 0 1.32 0 2 0 C0.79157144 4.43090471 -0.51668565 6.98112756 -4 10 C-3.52651586 5.8333396 -2.95303159 3.07115285 0 0 Z " fill="#32CBBC" transform="translate(88,102)"/>
<path d="M0 0 C3.48331435 3.01887244 4.79157144 5.56909529 6 10 C5.01 10 4.02 10 3 10 C3 8.35 3 6.7 3 5 C2.01 4.67 1.02 4.34 0 4 C0 2.68 0 1.36 0 0 Z " fill="#29A997" transform="translate(172,96)"/>
<path d="M0 0 C1.98 0.495 1.98 0.495 4 1 C3.74438677 3.3431213 3.40729228 5.67843403 3 8 C2.01 8.495 2.01 8.495 1 9 C1 7.02 1 5.04 1 3 C0.34 3 -0.32 3 -1 3 C-0.67 2.01 -0.34 1.02 0 0 Z " fill="#1AD4C5" transform="translate(89,93)"/>
<path d="M0 0 C2 2.66666667 4 5.33333333 6 8 C5.67 8.66 5.34 9.32 5 10 C3.0625 9.5 3.0625 9.5 1 8 C0.31209578 5.30341548 0.18053536 2.7982981 0 0 Z " fill="#31BFB0" transform="translate(185,118)"/>
<path d="M0 0 C1.43088528 2.86177057 0.59991697 4.93375773 0 8 C-0.99 7.67 -1.98 7.34 -3 7 C-2.625 4.0625 -2.625 4.0625 -2 1 C-1.34 0.67 -0.68 0.34 0 0 Z " fill="#23C1A5" transform="translate(133,64)"/>
<path d="M0 0 C0.66 0 1.32 0 2 0 C2 0.99 2 1.98 2 3 C1.34 3 0.68 3 0 3 C-0.28875 3.639375 -0.5775 4.27875 -0.875 4.9375 C-2 7 -2 7 -4 8 C-3.34 6.02 -2.68 4.04 -2 2 C-1.34 2 -0.68 2 0 2 C0 1.34 0 0.68 0 0 Z " fill="#16D4C7" transform="translate(116,97)"/>
<path d="M0 0 C0 1.65 0 3.3 0 5 C-1.32 5.33 -2.64 5.66 -4 6 C-4.33 5.34 -4.66 4.68 -5 4 C-1.125 0 -1.125 0 0 0 Z " fill="#080403" transform="translate(61,88)"/>
<path d="M0 0 C0.33 1.32 0.66 2.64 1 4 C0.34 4 -0.32 4 -1 4 C-1.33 5.65 -1.66 7.3 -2 9 C-2.99 9.33 -3.98 9.66 -5 10 C-4.67 8.68 -4.34 7.36 -4 6 C-3.34 6 -2.68 6 -2 6 C-1.7834375 5.071875 -1.7834375 5.071875 -1.5625 4.125 C-1 2 -1 2 0 0 Z " fill="#29A08D" transform="translate(74,72)"/>
<path d="M0 0 C0.99 0.495 0.99 0.495 2 1 C2.73075648 3.3140622 3.40138258 5.64828869 4 8 C3.01 8.33 2.02 8.66 1 9 C0.67 6.03 0.34 3.06 0 0 Z " fill="#2ACCBC" transform="translate(134,122)"/>
<path d="M0 0 C0.75 1.75 0.75 1.75 1 4 C-0.9375 6.25 -0.9375 6.25 -3 8 C-3 4.42424104 -1.91159393 2.94704065 0 0 Z " fill="#25A494" transform="translate(98,122)"/>
<path d="M0 0 C-0.33 1.32 -0.66 2.64 -1 4 C-1.66 4 -2.32 4 -3 4 C-3.33 4.66 -3.66 5.32 -4 6 C-4.33 4.35 -4.66 2.7 -5 1 C-3 0 -3 0 0 0 Z " fill="#03191A" transform="translate(46,118)"/>
</svg>
