<svg version="1.1" xmlns="http://www.w3.org/2000/svg" width="240" height="60" viewBox="0 0 240 60">
  <!-- Background -->
  <rect width="240" height="60" fill="transparent"/>
  
  <!-- Logo Symbol from apverse.svg -->
  <g transform="translate(5, 10) scale(0.18)">
    <path d="M0 0 C76.89 0 153.78 0 233 0 C233 76.89 233 153.78 233 233 C156.11 233 79.22 233 0 233 C0 156.11 0 79.22 0 0 Z " fill="transparent"/>
    <path d="M0 0 C1.35193703 -0.02136017 1.35193703 -0.02136017 2.73118591 -0.04315186 C3.71771149 -0.04336334 4.70423706 -0.04357483 5.72065735 -0.04379272 C7.28211739 -0.06131592 7.28211739 -0.06131592 8.87512207 -0.07919312 C12.32673783 -0.11286757 15.77792483 -0.12352645 19.22969055 -0.13119507 C21.62762608 -0.14337176 24.02556006 -0.15585763 26.42349243 -0.16864014 C31.4565014 -0.19114312 36.4893587 -0.20067286 41.52241516 -0.20297241 C47.96448032 -0.20824888 54.40527855 -0.25952971 60.84700298 -0.32248878 C65.80308973 -0.36340681 70.75887218 -0.37261503 75.71511269 -0.37308884 C78.08935202 -0.37846924 80.46359456 -0.39531732 82.83766747 -0.42393875 C86.16547388 -0.46070251 89.49041696 -0.45293522 92.8183136 -0.43441772 C93.79471802 -0.45487152 94.77112244 -0.47532532 95.77711487 -0.49639893 C102.20347231 -0.39840803 105.4822409 1.16471533 110.12411213 5.61326027 C112.80603148 8.8899461 112.88341507 12.22026401 112.80000305 16.34536743 C112.46660839 19.66673307 111.54010551 21.70700455 109.5929718 24.40786743 C103.88212569 27.53988889 99.06901224 27.8343049 92.63789368 27.78018188 C91.66300491 27.78383255 90.68811615 27.78748322 89.6836853 27.79124451 C86.47618434 27.79931937 83.26919343 27.78576507 80.0617218 27.77114868 C77.82405091 27.77062971 75.58637955 27.77114885 73.34870911 27.7726593 C68.66492381 27.77256971 63.98131112 27.76216776 59.29756165 27.74404907 C53.3021343 27.72136263 47.30695901 27.72081937 41.31150055 27.72756672 C36.69261954 27.7309126 32.07379569 27.7242649 27.45492554 27.71443748 C25.24459126 27.7105959 23.03425062 27.70943294 20.82391357 27.71102333 C17.73183638 27.71139533 14.64007895 27.69873584 11.54804993 27.68252563 C10.63978958 27.68500305 9.73152924 27.68748047 8.79574585 27.69003296 C3.04854751 27.64209222 -2.6168298 27.47731008 -7.40312195 23.92739868 C-9.9837722 20.87118145 -11.3027696 18.98128974 -12.0320282 14.97036743 C-10.82837262 8.10953064 -7.89940556 0.06380202 0 0 Z " fill="#0ADCC5" transform="translate(62.407,62.029)"/>
    <path d="M0 0 C3.43774463 1.14591488 4.17413159 1.95688598 6 5 C6 6.32 6 7.64 6 9 C6.66 9 7.32 9 8 9 C11 14.75 11 14.75 11 17 C11.66 17 12.32 17 13 17 C13.45375 18.134375 13.9075 19.26875 14.375 20.4375 C15.57095806 24.04721692 15.57095806 24.04721692 18 25 C18.89511796 26.54924263 19.71893351 28.14024101 20.5 29.75 C20.9228125 30.61109375 21.345625 31.4721875 21.78125 32.359375 C23 35 23 35 23.88671875 37.4375 C25.30667978 40.70590152 27.23399268 43.3575562 29.3125 46.25 C32.91364288 51.34615849 36.0692387 56.49751653 39 62 C40.46614348 64.67398376 41.95019029 67.3377431 43.4375 70 C43.82542725 70.7005249 44.21335449 71.4010498 44.61303711 72.12280273 C46.7278392 75.89990244 48.95874418 79.40743894 51.5625 82.875 C54.66557212 87.35339494 54.9526937 91.69606103 54 97 C52.96875 99.29296875 52.96875 99.29296875 52 101 C47.66316886 100.42733239 44.11240089 99.34466724 40.125 97.5625 C34.53687161 95.15274947 29.17264406 93.72105547 23.25 92.375 C19.72853572 90.22299405 18.41391911 86.79151492 17 83 C17 82.34 17 81.68 17 81 C16.34 81 15.68 81 15 81 C12 75.25 12 75.25 12 73 C11.34 73 10.68 73 10 73 C8.99515796 71.04414675 7.99626195 69.08523763 7 67.125 C6.443125 66.03445312 5.88625 64.94390625 5.3125 63.8203125 C4 61 4 61 4 59 C3.34 59 2.68 59 2 59 C1.78085938 58.35804687 1.56171875 57.71609375 1.3359375 57.0546875 C-0.51241338 52.82834134 -2.93638502 49.03320137 -5.375 45.125 C-6.81230771 42.80762954 -8.24677171 40.48902047 -9.66699219 38.16113281 C-10.5146863 36.78681261 -11.38310478 35.42490382 -12.27832031 34.08105469 C-14.04222708 31.32220137 -14.99222649 29.38660241 -15.05859375 26.0859375 C-13.61284536 21.87139421 -11.46859561 18.35731661 -9.0625 14.625 C-8.60681641 13.88894531 -8.15113281 13.15289062 -7.68164062 12.39453125 C-5.15036656 8.39934319 -5.15036656 8.39934319 -4 7 C-3.34 7 -2.68 7 -2 7 C-1.855625 6.21625 -1.71125 5.4325 -1.5625 4.625 C-1 2 -1 2 0 0 Z " fill="#09DCC5" transform="translate(142,47)"/>
  </g>
  
  <!-- Text -->
  <text x="60" y="38" font-family="system-ui, -apple-system, sans-serif" font-size="26" font-weight="700" fill="#1a1a1a">
    Apv3rse
  </text>
</svg>
